<svg width="38" height="38" viewBox="0 0 38 38" fill="none" xmlns="http://www.w3.org/2000/svg">
<path d="M19.0004 3.80005C21.0963 3.80005 22.8004 5.50411 22.8004 7.60005C22.8004 9.69599 21.0963 11.4 19.0004 11.4C16.9045 11.4 15.2004 9.69599 15.2004 7.60005C15.2004 5.50411 16.9045 3.80005 19.0004 3.80005ZM24.7004 22.325C24.7004 23.8094 23.9463 25.1157 22.8004 25.8816V28.5H15.2004V25.8816C14.0545 25.1157 13.3004 23.8094 13.3004 22.325V19.95C13.3004 16.8032 15.8535 14.25 19.0004 14.25C22.1473 14.25 24.7004 16.8032 24.7004 19.95V22.325ZM25.6504 28.5V26.8791C26.832 25.5432 27.5504 23.7797 27.5504 21.85V19.95C27.5504 18.3647 27.117 16.8863 26.3688 15.6097C27.0279 15.3425 27.7463 15.2 28.5004 15.2C31.6473 15.2 34.2004 17.7532 34.2004 20.9V22.8C34.2004 24.2072 33.4345 25.4363 32.3004 26.0894V28.5H25.6504ZM5.70039 26.0894C4.56633 25.4363 3.80039 24.2072 3.80039 22.8V20.9C3.80039 17.7532 6.35352 15.2 9.50039 15.2C10.2545 15.2 10.9729 15.3485 11.632 15.6097C10.8838 16.8804 10.4504 18.3647 10.4504 19.95V21.85C10.4504 23.7797 11.1688 25.5372 12.3504 26.8791V28.5H5.70039V26.0894ZM9.50039 5.70005C11.3351 5.70005 12.8254 7.19036 12.8254 9.02505C12.8254 10.8597 11.3351 12.35 9.50039 12.35C7.6657 12.35 6.17539 10.8597 6.17539 9.02505C6.17539 7.19036 7.6657 5.70005 9.50039 5.70005ZM28.5004 5.70005C30.3351 5.70005 31.8254 7.19036 31.8254 9.02505C31.8254 10.8597 30.3351 12.35 28.5004 12.35C26.6657 12.35 25.1754 10.8597 25.1754 9.02505C25.1754 7.19036 26.6657 5.70005 28.5004 5.70005ZM3.32539 31.35H34.6754C35.4651 31.35 36.1004 31.9854 36.1004 32.775C36.1004 33.5647 35.4651 34.2 34.6754 34.2H3.32539C2.5357 34.2 1.90039 33.5647 1.90039 32.775C1.90039 31.9854 2.5357 31.35 3.32539 31.35Z" fill="url(#paint0_linear_423_3919)"/>
<defs>
<linearGradient id="paint0_linear_423_3919" x1="19.0004" y1="3.80005" x2="19.0004" y2="34.2" gradientUnits="userSpaceOnUse">
<stop stop-color="#9810FA"/>
<stop offset="1" stop-color="#C27AFF"/>
</linearGradient>
</defs>
</svg>
