<svg width="38" height="38" viewBox="0 0 38 38" fill="none" xmlns="http://www.w3.org/2000/svg">
<path d="M19.0003 34.8333L15.8337 25.3333H3.16699L6.33366 34.8333H19.0003ZM19.0003 34.8333H25.3337M19.0003 20.5833V19.7916C19.0003 16.8054 19.0003 15.3139 18.0725 14.3861C17.1447 13.4583 15.6532 13.4583 12.667 13.4583C9.68083 13.4583 8.18933 13.4583 7.26149 14.3861C6.33366 15.3139 6.33366 16.8054 6.33366 19.7916V20.5833" stroke="url(#paint0_linear_423_3925)" stroke-width="2.375" stroke-linecap="round" stroke-linejoin="round"/>
<path d="M30.0833 20.5833C30.0833 21.4231 29.7497 22.2286 29.1558 22.8225C28.562 23.4163 27.7565 23.75 26.9167 23.75C26.0768 23.75 25.2714 23.4163 24.6775 22.8225C24.0836 22.2286 23.75 21.4231 23.75 20.5833C23.75 19.7434 24.0836 18.938 24.6775 18.3441C25.2714 17.7503 26.0768 17.4166 26.9167 17.4166C27.7565 17.4166 28.562 17.7503 29.1558 18.3441C29.7497 18.938 30.0833 19.7434 30.0833 20.5833ZM15.8333 6.33329C15.8333 7.17314 15.4997 7.9786 14.9058 8.57246C14.312 9.16633 13.5065 9.49996 12.6667 9.49996C11.8268 9.49996 11.0214 9.16633 10.4275 8.57246C9.83363 7.9786 9.5 7.17314 9.5 6.33329C9.5 5.49344 9.83363 4.68799 10.4275 4.09412C11.0214 3.50026 11.8268 3.16663 12.6667 3.16663C13.5065 3.16663 14.312 3.50026 14.9058 4.09412C15.4997 4.68799 15.8333 5.49344 15.8333 6.33329Z" stroke="url(#paint1_linear_423_3925)" stroke-width="2.375"/>
<path d="M22.167 27.7083H31.667C32.5068 27.7083 33.3123 28.0419 33.9062 28.6357C34.5 29.2296 34.8337 30.0351 34.8337 30.8749V31.6666C34.8337 32.5064 34.5 33.3119 33.9062 33.9058C33.3123 34.4996 32.5068 34.8333 31.667 34.8333H30.0837" stroke="url(#paint2_linear_423_3925)" stroke-width="2.375" stroke-linecap="round"/>
<defs>
<linearGradient id="paint0_linear_423_3925" x1="14.2503" y1="13.4583" x2="14.2503" y2="34.8333" gradientUnits="userSpaceOnUse">
<stop stop-color="#9810FA"/>
<stop offset="1" stop-color="#C27AFF"/>
</linearGradient>
<linearGradient id="paint1_linear_423_3925" x1="19.7917" y1="3.16663" x2="19.7917" y2="23.75" gradientUnits="userSpaceOnUse">
<stop stop-color="#9810FA"/>
<stop offset="1" stop-color="#C27AFF"/>
</linearGradient>
<linearGradient id="paint2_linear_423_3925" x1="28.5003" y1="27.7083" x2="28.5003" y2="34.8333" gradientUnits="userSpaceOnUse">
<stop stop-color="#9810FA"/>
<stop offset="1" stop-color="#C27AFF"/>
</linearGradient>
</defs>
</svg>
