<svg width="38" height="38" viewBox="0 0 38 38" fill="none" xmlns="http://www.w3.org/2000/svg">
<path d="M19.0001 4.75C15.8686 4.75004 12.8074 5.67867 10.2037 7.41847C7.59996 9.15826 5.5706 11.6311 4.37223 14.5242C3.17386 17.4173 2.86031 20.6009 3.47122 23.6722C4.08214 26.7435 5.59008 29.5648 7.80437 31.7791L8.92378 32.8985L12.757 29.0653L10.5182 26.8264L8.99345 28.3496C7.6012 26.5554 6.71692 24.4199 6.4332 22.1667H9.50012V19H6.4332C6.71692 16.7468 7.6012 14.6113 8.99345 12.8171L9.96404 13.7861L10.7557 14.5778L12.9945 12.3389L11.2339 10.5767C13.0281 9.18441 15.1636 8.30013 17.4168 8.01642V10.2917H20.5835V8.01642C22.8367 8.30013 24.9722 9.18441 26.7664 10.5767L25.0057 12.3389L27.2445 14.5778L29.0068 12.8171C30.399 14.6113 31.2833 16.7468 31.567 19H28.5001V22.1667H31.567C31.2831 24.4206 30.3983 26.5567 29.0052 28.3512L27.482 26.8264L25.2432 29.0653L29.0765 32.8985L30.1959 31.7791C32.4094 29.5645 33.9166 26.7433 34.5271 23.6722C35.1376 20.6011 34.8239 17.418 33.6256 14.5252C32.4274 11.6324 30.3984 9.15971 27.7952 7.41979C25.1919 5.67988 22.1313 4.7508 19.0001 4.75Z" fill="url(#paint0_linear_423_3934)"/>
<path d="M20.5837 20.5833V13.4583C20.5837 13.0384 20.4168 12.6357 20.1199 12.3387C19.823 12.0418 19.4203 11.875 19.0003 11.875C18.5804 11.875 18.1777 12.0418 17.8807 12.3387C17.5838 12.6357 17.417 13.0384 17.417 13.4583V20.5833C17.417 21.0033 17.5838 21.406 17.8807 21.7029C18.1777 21.9999 18.5804 22.1667 19.0003 22.1667C19.4203 22.1667 19.823 21.9999 20.1199 21.7029C20.4168 21.406 20.5837 21.0033 20.5837 20.5833Z" fill="url(#paint1_linear_423_3934)"/>
<defs>
<linearGradient id="paint0_linear_423_3934" x1="18.999" y1="4.75" x2="18.999" y2="32.8985" gradientUnits="userSpaceOnUse">
<stop stop-color="#9810FA"/>
<stop offset="1" stop-color="#C27AFF"/>
</linearGradient>
<linearGradient id="paint1_linear_423_3934" x1="19.0003" y1="11.875" x2="19.0003" y2="22.1667" gradientUnits="userSpaceOnUse">
<stop stop-color="#9810FA"/>
<stop offset="1" stop-color="#C27AFF"/>
</linearGradient>
</defs>
</svg>
