<svg width="26" height="26" viewBox="0 0 26 26" fill="none" xmlns="http://www.w3.org/2000/svg">
<path d="M14.9386 3.80675C14.3573 3.44324 13.6856 3.25049 13 3.25049C12.3144 3.25049 11.6427 3.44324 11.0614 3.80675L2.04588 9.44388C1.91832 9.51405 1.81196 9.61721 1.73792 9.74256C1.66388 9.86791 1.62488 10.0109 1.625 10.1564V17.0627C1.625 17.2782 1.7106 17.4848 1.86298 17.6372C2.01535 17.7896 2.22201 17.8752 2.4375 17.8752C2.65299 17.8752 2.85965 17.7896 3.01202 17.6372C3.1644 17.4848 3.25 17.2782 3.25 17.0627V11.6246L11.0614 16.5094C11.6427 16.8729 12.3144 17.0656 13 17.0656C13.6856 17.0656 14.3573 16.8729 14.9386 16.5094L23.9931 10.8463C24.1098 10.7732 24.206 10.6716 24.2727 10.5512C24.3394 10.4308 24.3744 10.2953 24.3744 10.1577C24.3744 10.02 24.3394 9.88457 24.2727 9.76412C24.206 9.64367 24.1098 9.54214 23.9931 9.46907L14.9386 3.80675ZM15.5846 17.5429L20.3125 14.5846V19.1338C20.3124 19.341 20.233 19.5404 20.0907 19.6911C19.1803 20.6582 18.0815 21.4285 16.862 21.9546C15.6425 22.4807 14.3281 22.7515 13 22.7502C10.2066 22.7502 7.68625 21.5737 5.90931 19.6919C5.76698 19.5412 5.68763 19.3419 5.6875 19.1346V14.5862L10.4154 17.5421C11.1904 18.0266 12.086 18.2836 13 18.2836C13.914 18.2836 14.8096 18.0275 15.5846 17.5429Z" fill="url(#paint0_linear_423_3182)"/>
<defs>
<linearGradient id="paint0_linear_423_3182" x1="12.9997" y1="3.25049" x2="12.9997" y2="22.7502" gradientUnits="userSpaceOnUse">
<stop stop-color="#9810FA"/>
<stop offset="1" stop-color="#C27AFF"/>
</linearGradient>
</defs>
</svg>
