<svg width="26" height="26" viewBox="0 0 26 26" fill="none" xmlns="http://www.w3.org/2000/svg">
<path d="M20.5833 4.33339H16.055C15.8332 3.70012 15.42 3.15143 14.8727 2.76323C14.3254 2.37503 13.671 2.1665 13 2.1665C12.329 2.1665 11.6746 2.37503 11.1273 2.76323C10.58 3.15143 10.1668 3.70012 9.945 4.33339H5.41667C4.84256 4.3351 4.29245 4.56393 3.8865 4.96989C3.48054 5.37584 3.25171 5.92595 3.25 6.50006V21.6667C3.25171 22.2408 3.48054 22.7909 3.8865 23.1969C4.29245 23.6029 4.84256 23.8317 5.41667 23.8334H20.5833C21.1574 23.8317 21.7075 23.6029 22.1135 23.1969C22.5195 22.7909 22.7483 22.2408 22.75 21.6667V6.50006C22.7483 5.92595 22.5195 5.37584 22.1135 4.96989C21.7075 4.56393 21.1574 4.3351 20.5833 4.33339ZM13 4.33339C13.2143 4.33339 13.4237 4.39693 13.6019 4.51596C13.78 4.635 13.9189 4.8042 14.0009 5.00215C14.0829 5.2001 14.1043 5.41793 14.0625 5.62807C14.0207 5.83822 13.9175 6.03125 13.766 6.18276C13.6145 6.33426 13.4215 6.43744 13.2113 6.47924C13.0012 6.52104 12.7834 6.49959 12.5854 6.41759C12.3875 6.3356 12.2183 6.19674 12.0992 6.01859C11.9802 5.84044 11.9167 5.63099 11.9167 5.41672C11.9175 5.12967 12.0319 4.85462 12.2349 4.65164C12.4379 4.44866 12.7129 4.33425 13 4.33339ZM10.8333 9.75006L13.8558 12.7769L16.5858 10.0469L15.1667 8.66672H19.5V13.0001L18.1177 11.5798L13.858 15.8427L10.8333 12.8159L8.03183 15.6152L6.5 14.0834L10.8333 9.75006ZM20.5833 20.5834H5.41667V18.4167H20.5833V20.5834Z" fill="url(#paint0_linear_423_3198)"/>
<defs>
<linearGradient id="paint0_linear_423_3198" x1="13" y1="2.1665" x2="13" y2="23.8334" gradientUnits="userSpaceOnUse">
<stop stop-color="#9911FB"/>
<stop offset="1" stop-color="#C178FF"/>
</linearGradient>
</defs>
</svg>
