<svg width="26" height="26" viewBox="0 0 26 26" fill="none" xmlns="http://www.w3.org/2000/svg">
<g clip-path="url(#clip0_423_3190)">
<path fill-rule="evenodd" clip-rule="evenodd" d="M20.1533 0.588736C21.8192 0.421593 22.7719 0.421593 24.3765 0.588736C24.9225 0.64445 25.3533 1.07716 25.4109 1.62316C25.578 3.22774 25.578 4.18045 25.4109 5.84631C25.3892 6.06504 25.3058 6.2731 25.1704 6.44629C25.035 6.61947 24.8533 6.75066 24.6463 6.82459C24.4393 6.89852 24.2155 6.91216 24.0011 6.8639C23.7866 6.81565 23.5903 6.70749 23.4349 6.55202L22.4933 5.61231C20.0308 8.48716 17.1225 11.2803 14.2383 13.3844C14.0148 13.5474 13.7404 13.6252 13.4646 13.6037C13.1888 13.5823 12.9297 13.463 12.734 13.2675L9.49333 10.0305C6.78797 11.9874 4.44871 14.4059 2.5829 17.1749C2.49705 17.3008 2.38724 17.4087 2.25972 17.4922C2.1322 17.5757 1.98948 17.6333 1.83971 17.6617C1.53722 17.719 1.22437 17.6538 0.969972 17.4804C0.715572 17.307 0.540465 17.0397 0.483173 16.7372C0.425881 16.4347 0.491096 16.1218 0.664472 15.8674C2.8754 12.5916 5.6956 9.77138 8.97147 7.56045C9.195 7.40826 9.46464 7.3389 9.73386 7.36433C10.0031 7.38976 10.255 7.50839 10.446 7.69974L13.6589 10.9126C16.1698 8.97002 18.6899 6.50002 20.846 3.96502L19.4439 2.56474C19.2884 2.40935 19.1803 2.21301 19.132 1.99856C19.0838 1.78411 19.0974 1.56037 19.1713 1.35337C19.2453 1.14636 19.3764 0.964607 19.5496 0.829244C19.7228 0.693881 19.9309 0.610477 20.1496 0.588736M16.7919 15.0429C19.0873 13.2767 21.3568 11.1503 23.4052 8.92174C24.0423 9.31163 24.7971 9.46298 25.5353 9.34888V11.9303L25.0989 22.3043L25.0952 22.3674C25.0566 23.1013 24.7475 23.7948 24.2276 24.3141C23.7076 24.8334 23.0137 25.1416 22.2798 25.1792C20.9185 25.2609 18.8849 25.3742 16.8346 25.4485H16.8012C15.5105 25.4998 14.2189 25.5282 12.9272 25.5339C9.8629 25.5339 5.61004 25.3036 3.40004 25.1699C2.7113 25.1279 2.05865 24.8475 1.55407 24.3768C1.0495 23.9061 0.724474 23.2745 0.634757 22.5903C0.537369 21.772 0.49456 20.948 0.506614 20.124C1.9069 20.7926 3.62661 20.3599 4.52547 19.0376C5.91833 16.9947 7.45976 15.249 9.25004 13.7002V23.127L9.29276 23.1289C9.33238 23.1301 9.37199 23.1338 9.41161 23.14C10.583 23.184 11.755 23.2081 12.9272 23.2124C14.0935 23.2124 15.4455 23.1772 16.7919 23.127V15.0429Z" fill="url(#paint0_linear_423_3190)"/>
</g>
<defs>
<linearGradient id="paint0_linear_423_3190" x1="12.9996" y1="0.463379" x2="12.9996" y2="25.5339" gradientUnits="userSpaceOnUse">
<stop stop-color="#9810FA"/>
<stop offset="1" stop-color="#C27AFF"/>
</linearGradient>
<clipPath id="clip0_423_3190">
<rect width="26" height="26" fill="white"/>
</clipPath>
</defs>
</svg>
