<svg width="26" height="26" viewBox="0 0 26 26" fill="none" xmlns="http://www.w3.org/2000/svg">
<path fill-rule="evenodd" clip-rule="evenodd" d="M2.16699 4.3335H18.417V7.5835H14.0836V17.3335H11.3753V19.5002H13.0003V21.6669H7.58362V19.5002H9.20862V17.3335H2.16699V4.3335ZM13.0003 8.6465L9.20862 6.45686L5.41699 8.6465V13.0257L9.20862 15.2154L13.0003 13.0257V8.6465ZM6.50031 12.4003V9.84966L8.66699 11.1001V13.6516L6.50031 12.4003ZM9.75031 13.6516V11.1001L11.917 9.84966V12.4003L9.75031 13.6516ZM9.20862 7.70786L11.3341 8.93524L9.20862 10.1619L7.08323 8.93524L9.20862 7.70786ZM23.8336 22.7502V8.66686H15.167V22.7502H23.8336ZM17.3336 10.8335H21.667V13.0002H17.3336V10.8335ZM17.3336 14.0835V20.5835H21.667V14.0835H17.3336ZM18.417 18.4169H20.5836V16.2502H18.417V18.4169Z" fill="url(#paint0_linear_423_3206)"/>
<defs>
<linearGradient id="paint0_linear_423_3206" x1="13.0003" y1="4.3335" x2="13.0003" y2="22.7502" gradientUnits="userSpaceOnUse">
<stop stop-color="#9A12FB"/>
<stop offset="1" stop-color="#C177FF"/>
</linearGradient>
</defs>
</svg>
