<svg width="34" height="34" viewBox="0 0 34 34" fill="none" xmlns="http://www.w3.org/2000/svg">
<path d="M2.125 17C2.125 20.9451 3.69218 24.7286 6.48179 27.5182C9.27139 30.3078 13.0549 31.875 17 31.875C20.9451 31.875 24.7286 30.3078 27.5182 27.5182C30.3078 24.7286 31.875 20.9451 31.875 17C31.875 13.0549 30.3078 9.27139 27.5182 6.48179C24.7286 3.69218 20.9451 2.125 17 2.125C13.0549 2.125 9.27139 3.69218 6.48179 6.48179C3.69218 9.27139 2.125 13.0549 2.125 17Z" stroke="#531B9D" stroke-linejoin="round"/>
<path d="M10.625 17C10.625 13.0549 11.2967 9.27139 12.4922 6.48179C13.6877 3.69218 15.3092 2.125 17 2.125C18.6908 2.125 20.3123 3.69218 21.5078 6.48179C22.7033 9.27139 23.375 13.0549 23.375 17C23.375 20.9451 22.7033 24.7286 21.5078 27.5182C20.3123 30.3078 18.6908 31.875 17 31.875C15.3092 31.875 13.6877 30.3078 12.4922 27.5182C11.2967 24.7286 10.625 20.9451 10.625 17Z" stroke="#531B9D" stroke-linejoin="round"/>
<path d="M3.1875 21.9583H30.8125M3.1875 12.0416H30.8125" stroke="#531B9D" stroke-linecap="round"/>
</svg>
