<svg width="34" height="34" viewBox="0 0 34 34" fill="none" xmlns="http://www.w3.org/2000/svg">
<path d="M10.7893 31.1667C10.1547 31.1667 9.61444 30.9438 9.16867 30.498C8.72289 30.0523 8.5 29.5125 8.5 28.8788V5.12129C8.5 4.46962 8.71864 3.92562 9.15592 3.48929C9.59319 3.05296 10.1377 2.83432 10.7893 2.83337H23.3212C23.9539 2.83337 24.4937 3.05626 24.9404 3.50204C25.3862 3.94782 25.6091 4.48804 25.6091 5.12271V9.67587C25.9614 9.71365 26.2674 9.86004 26.5271 10.115C26.7868 10.3691 26.9167 10.6751 26.9167 11.033V13.5391C26.9167 13.8971 26.7868 14.2031 26.5271 14.4571C26.2674 14.7112 25.9614 14.8576 25.6091 14.8963V28.8774C25.6091 29.5102 25.3862 30.0499 24.9404 30.4966C24.4946 30.9424 23.9549 31.1653 23.3212 31.1653L10.7893 31.1667ZM10.7893 29.75H23.3212C23.5752 29.75 23.7839 29.6683 23.9473 29.505C24.1107 29.3416 24.1924 29.1328 24.1924 28.8788V5.12129C24.1924 4.86724 24.1107 4.65851 23.9473 4.49512C23.7839 4.33174 23.5752 4.25004 23.3212 4.25004H10.7893C10.5343 4.25004 10.3251 4.33174 10.1617 4.49512C9.99836 4.65851 9.91667 4.86771 9.91667 5.12271V28.8788C9.91667 29.1328 9.99836 29.3416 10.1617 29.505C10.3251 29.6683 10.5343 29.75 10.7893 29.75ZM14.0038 27.2425H20.1053C20.3074 27.2425 20.476 27.1755 20.6111 27.0414C20.7461 26.9073 20.8137 26.7387 20.8137 26.5356C20.8137 26.3326 20.7461 26.164 20.6111 26.0299C20.476 25.8958 20.3074 25.8282 20.1053 25.8273H14.0038C13.8016 25.8273 13.6331 25.8948 13.498 26.0299C13.362 26.1649 13.294 26.3335 13.294 26.5356C13.294 26.7377 13.362 26.9058 13.498 27.04C13.634 27.1741 13.8026 27.2421 14.0038 27.244" fill="#531B9D"/>
</svg>
