<svg width="34" height="34" viewBox="0 0 34 34" fill="none" xmlns="http://www.w3.org/2000/svg">
<path d="M30.458 29.75H28.333V6.37504C28.333 6.18718 28.2584 6.00701 28.1255 5.87417C27.9927 5.74134 27.8125 5.66671 27.6247 5.66671C27.4368 5.66671 27.2566 5.74134 27.1238 5.87417C26.991 6.00701 26.9163 6.18718 26.9163 6.37504V29.75H22.6663V12.0417C22.6663 11.8538 22.5917 11.6737 22.4589 11.5408C22.326 11.408 22.1459 11.3334 21.958 11.3334C21.7701 11.3334 21.59 11.408 21.4571 11.5408C21.3243 11.6737 21.2497 11.8538 21.2497 12.0417V29.75H16.9997V17.7084C16.9997 17.5205 16.925 17.3403 16.7922 17.2075C16.6594 17.0747 16.4792 17 16.2913 17C16.1035 17 15.9233 17.0747 15.7905 17.2075C15.6576 17.3403 15.583 17.5205 15.583 17.7084V29.75H11.333V23.375C11.333 23.1872 11.2584 23.007 11.1255 22.8742C10.9927 22.7413 10.8125 22.6667 10.6247 22.6667C10.4368 22.6667 10.2566 22.7413 10.1238 22.8742C9.99097 23.007 9.91634 23.1872 9.91634 23.375V29.75H4.24967V3.54171C4.24967 3.35385 4.17505 3.17368 4.04221 3.04084C3.90937 2.908 3.7292 2.83337 3.54134 2.83337C3.35348 2.83337 3.17331 2.908 3.04047 3.04084C2.90764 3.17368 2.83301 3.35385 2.83301 3.54171V30.4584C2.83301 30.6462 2.90764 30.8264 3.04047 30.9592C3.17331 31.0921 3.35348 31.1667 3.54134 31.1667H30.458C30.6459 31.1667 30.826 31.0921 30.9589 30.9592C31.0917 30.8264 31.1663 30.6462 31.1663 30.4584C31.1663 30.2705 31.0917 30.0903 30.9589 29.9575C30.826 29.8247 30.6459 29.75 30.458 29.75Z" fill="#531B9D"/>
</svg>
