<svg width="34" height="34" viewBox="0 0 34 34" fill="none" xmlns="http://www.w3.org/2000/svg">
<path d="M23.2333 29.75H20.1818L17.3484 22.6667H8.15143L5.3181 29.75H2.2666L11.3333 7.08332H14.1666L23.2333 29.75ZM29.7499 17V29.75H26.9166V17H29.7499ZM9.28477 19.8333H16.2151L12.7499 11.1704L9.28477 19.8333ZM27.666 3.28666C27.7192 3.15314 27.8112 3.03866 27.9302 2.958C28.0491 2.87734 28.1895 2.83423 28.3333 2.83423C28.477 2.83423 28.6174 2.87734 28.7364 2.958C28.8553 3.03866 28.9473 3.15314 29.0005 3.28666L29.3589 4.15082C29.9603 5.61718 31.1011 6.79706 32.5464 7.44741L33.5622 7.90074C33.6922 7.96092 33.8024 8.05706 33.8795 8.1778C33.9567 8.29855 33.9977 8.43886 33.9977 8.58216C33.9977 8.72546 33.9567 8.86577 33.8795 8.98651C33.8024 9.10726 33.6922 9.2034 33.5622 9.26357L32.4884 9.74241C31.0782 10.3741 29.9561 11.5114 29.3433 12.9299L28.9948 13.7317C28.9404 13.8623 28.8485 13.9738 28.7308 14.0523C28.6131 14.1307 28.4747 14.1726 28.3333 14.1726C28.1918 14.1726 28.0535 14.1307 27.9358 14.0523C27.818 13.9738 27.7261 13.8623 27.6717 13.7317L27.3218 12.9313C26.7097 11.5126 25.588 10.3748 24.1782 9.74241L23.1015 9.26357C22.9711 9.20357 22.8606 9.10742 22.7831 8.98652C22.7056 8.86561 22.6645 8.72504 22.6645 8.58145C22.6645 8.43786 22.7056 8.29728 22.7831 8.17638C22.8606 8.05548 22.9711 7.95933 23.1015 7.89932L24.1187 7.44599C25.564 6.79662 26.7053 5.61779 27.3076 4.15224L27.666 3.28666Z" fill="#531B9D"/>
</svg>
