<svg width="34" height="34" viewBox="0 0 34 34" fill="none" xmlns="http://www.w3.org/2000/svg">
<path fill-rule="evenodd" clip-rule="evenodd" d="M18.7004 5.09998H17.0004C15.4926 5.09959 14.0274 5.60037 12.8352 6.52357C11.6431 7.44678 10.7915 8.74003 10.4146 10.2H10.2004C8.39692 10.2 6.66731 10.9164 5.39206 12.1916C4.11682 13.4669 3.40039 15.1965 3.40039 17C3.40039 18.8034 4.11682 20.5331 5.39206 21.8083C6.66731 23.0835 8.39692 23.8 10.2004 23.8H23.8004C25.4724 23.8024 27.0867 23.1887 28.3349 22.0762C29.5831 20.9636 30.3776 19.4302 30.5667 17.7689C30.7557 16.1076 30.3261 14.4349 29.3599 13.0703C28.3936 11.7058 26.9585 10.745 25.3287 10.3717C24.983 8.87282 24.1393 7.53545 22.9354 6.57797C21.7315 5.62049 20.2386 5.09946 18.7004 5.09998ZM11.7321 11.9L12.0602 10.625C12.3429 9.52987 12.9817 8.55983 13.876 7.86741C14.7703 7.175 15.8694 6.7995 17.0004 6.79998H18.7004C21.0889 6.79998 23.1442 8.45748 23.6712 10.7525L23.9092 11.7895L24.9462 12.0292C26.1652 12.3126 27.2374 13.0343 27.959 14.0569C28.6806 15.0794 29.0011 16.3315 28.8596 17.575C28.7182 18.8185 28.1245 19.9666 27.1917 20.8009C26.2589 21.6353 25.0519 22.0976 23.8004 22.1H10.2004C8.84779 22.1 7.55058 21.5627 6.59415 20.6062C5.63771 19.6498 5.10039 18.3526 5.10039 17C5.10039 15.6474 5.63771 14.3502 6.59415 13.3937C7.55058 12.4373 8.84779 11.9 10.2004 11.9H11.7321Z" fill="#531B9D"/>
<path d="M18.7 28.05C18.7 28.2754 18.6104 28.4916 18.451 28.651C18.2916 28.8104 18.0754 28.9 17.85 28.9C17.6246 28.9 17.4084 28.8104 17.249 28.651C17.0896 28.4916 17 28.2754 17 28.05V15.3C17 15.0745 17.0896 14.8583 17.249 14.6989C17.4084 14.5395 17.6246 14.45 17.85 14.45C18.0754 14.45 18.2916 14.5395 18.451 14.6989C18.6104 14.8583 18.7 15.0745 18.7 15.3V28.05Z" fill="#531B9D"/>
<path d="M14.1304 19.3629C13.9535 19.4912 13.734 19.5465 13.5175 19.5172C13.301 19.488 13.104 19.3765 12.9675 19.2059C12.831 19.0353 12.7655 18.8186 12.7845 18.601C12.8035 18.3833 12.9056 18.1813 13.0696 18.0369L17.3196 14.6369C17.4964 14.5086 17.7159 14.4534 17.9324 14.4826C18.1489 14.5119 18.3459 14.6234 18.4824 14.794C18.6189 14.9646 18.6844 15.1812 18.6654 15.3989C18.6464 15.6166 18.5443 15.8186 18.3804 15.9629L14.1304 19.3629Z" fill="#531B9D"/>
<path d="M22.6305 18.037C22.7944 18.1814 22.8965 18.3833 22.9155 18.601C22.9345 18.8187 22.869 19.0353 22.7325 19.2059C22.596 19.3765 22.399 19.488 22.1825 19.5173C21.966 19.5465 21.7465 19.4913 21.5697 19.363L17.3197 15.963C17.2266 15.8954 17.1481 15.8097 17.0891 15.711C17.0301 15.6123 16.9918 15.5027 16.9764 15.3887C16.961 15.2747 16.9689 15.1588 16.9996 15.048C17.0303 14.9372 17.0832 14.8337 17.155 14.7439C17.2269 14.6541 17.3162 14.5799 17.4175 14.5256C17.5189 14.4713 17.6303 14.4381 17.7448 14.4281C17.8594 14.4181 17.9748 14.4315 18.0841 14.4674C18.1933 14.5033 18.2941 14.561 18.3805 14.637L22.6305 18.037Z" fill="#531B9D"/>
</svg>
