<svg width="34" height="34" viewBox="0 0 34 34" fill="none" xmlns="http://www.w3.org/2000/svg">
<g clip-path="url(#clip0_423_3838)">
<path d="M33.4688 25.4957H30.2812C29.9878 25.4957 29.75 25.686 29.75 25.9207V27.1957C29.75 27.4304 29.9878 27.6207 30.2812 27.6207H33.4688C33.7622 27.6207 34 27.4304 34 27.1957V25.9207C34 25.686 33.7622 25.4957 33.4688 25.4957Z" fill="#B3B3B3"/>
<path d="M33.4688 15.9332H30.2812C29.9878 15.9332 29.75 16.1235 29.75 16.3582V17.6332C29.75 17.8679 29.9878 18.0582 30.2812 18.0582H33.4688C33.7622 18.0582 34 17.8679 34 17.6332V16.3582C34 16.1235 33.7622 15.9332 33.4688 15.9332Z" fill="#B3B3B3"/>
<path d="M33.4688 11.152H30.2812C29.9878 11.152 29.75 11.3423 29.75 11.577V12.852C29.75 13.0867 29.9878 13.277 30.2812 13.277H33.4688C33.7622 13.277 34 13.0867 34 12.852V11.577C34 11.3423 33.7622 11.152 33.4688 11.152Z" fill="#B3B3B3"/>
<path d="M33.4688 6.37073H30.2812C29.9878 6.37073 29.75 6.56101 29.75 6.79573V8.07073C29.75 8.30545 29.9878 8.49573 30.2812 8.49573H33.4688C33.7622 8.49573 34 8.30545 34 8.07073V6.79573C34 6.56101 33.7622 6.37073 33.4688 6.37073Z" fill="#B3B3B3"/>
<path d="M33.4688 20.7145H30.2812C29.9878 20.7145 29.75 20.9048 29.75 21.1395V22.4145C29.75 22.6492 29.9878 22.8395 30.2812 22.8395H33.4688C33.7622 22.8395 34 22.6492 34 22.4145V21.1395C34 20.9048 33.7622 20.7145 33.4688 20.7145Z" fill="#B3B3B3"/>
<path d="M8.50488 33.4688V30.2812C8.50488 29.9878 8.3146 29.75 8.07988 29.75H6.80488C6.57016 29.75 6.37988 29.9878 6.37988 30.2812V33.4688C6.37988 33.7622 6.57016 34 6.80488 34H8.07988C8.3146 34 8.50488 33.7622 8.50488 33.4688Z" fill="#B3B3B3"/>
<path d="M18.0674 33.4688V30.2812C18.0674 29.9878 17.8771 29.75 17.6424 29.75H16.3674C16.1327 29.75 15.9424 29.9878 15.9424 30.2812V33.4688C15.9424 33.7622 16.1327 34 16.3674 34H17.6424C17.8771 34 18.0674 33.7622 18.0674 33.4688Z" fill="#B3B3B3"/>
<path d="M22.8486 33.4688V30.2812C22.8486 29.9878 22.6584 29.75 22.4236 29.75H21.1486C20.9139 29.75 20.7236 29.9878 20.7236 30.2812V33.4688C20.7236 33.7622 20.9139 34 21.1486 34H22.4236C22.6584 34 22.8486 33.7622 22.8486 33.4688Z" fill="#B3B3B3"/>
<path d="M27.6299 33.4688V30.2812C27.6299 29.9878 27.4396 29.75 27.2049 29.75H25.9299C25.6952 29.75 25.5049 29.9878 25.5049 30.2812V33.4688C25.5049 33.7622 25.6952 34 25.9299 34H27.2049C27.4396 34 27.6299 33.7622 27.6299 33.4688Z" fill="#B3B3B3"/>
<path d="M13.2861 33.4688V30.2812C13.2861 29.9878 13.0959 29.75 12.8611 29.75H11.5861C11.3514 29.75 11.1611 29.9878 11.1611 30.2812V33.4688C11.1611 33.7622 11.3514 34 11.5861 34H12.8611C13.0959 34 13.2861 33.7622 13.2861 33.4688Z" fill="#B3B3B3"/>
<path d="M3.71875 25.4957H0.53125C0.237849 25.4957 0 25.686 0 25.9207V27.1957C0 27.4304 0.237849 27.6207 0.53125 27.6207H3.71875C4.01215 27.6207 4.25 27.4304 4.25 27.1957V25.9207C4.25 25.686 4.01215 25.4957 3.71875 25.4957Z" fill="#B3B3B3"/>
<path d="M3.71875 15.9332H0.53125C0.237849 15.9332 0 16.1235 0 16.3582V17.6332C0 17.8679 0.237849 18.0582 0.53125 18.0582H3.71875C4.01215 18.0582 4.25 17.8679 4.25 17.6332V16.3582C4.25 16.1235 4.01215 15.9332 3.71875 15.9332Z" fill="#B3B3B3"/>
<path d="M3.71875 11.152H0.53125C0.237849 11.152 0 11.3423 0 11.577V12.852C0 13.0867 0.237849 13.277 0.53125 13.277H3.71875C4.01215 13.277 4.25 13.0867 4.25 12.852V11.577C4.25 11.3423 4.01215 11.152 3.71875 11.152Z" fill="#B3B3B3"/>
<path d="M3.71875 6.37073H0.53125C0.237849 6.37073 0 6.56101 0 6.79573V8.07073C0 8.30545 0.237849 8.49573 0.53125 8.49573H3.71875C4.01215 8.49573 4.25 8.30545 4.25 8.07073V6.79573C4.25 6.56101 4.01215 6.37073 3.71875 6.37073Z" fill="#B3B3B3"/>
<path d="M3.71875 20.7145H0.53125C0.237849 20.7145 0 20.9048 0 21.1395V22.4145C0 22.6492 0.237849 22.8395 0.53125 22.8395H3.71875C4.01215 22.8395 4.25 22.6492 4.25 22.4145V21.1395C4.25 20.9048 4.01215 20.7145 3.71875 20.7145Z" fill="#B3B3B3"/>
<path d="M8.50488 3.71875V0.53125C8.50488 0.237849 8.3146 0 8.07988 0H6.80488C6.57016 0 6.37988 0.237849 6.37988 0.53125V3.71875C6.37988 4.01215 6.57016 4.25 6.80488 4.25H8.07988C8.3146 4.25 8.50488 4.01215 8.50488 3.71875Z" fill="#B3B3B3"/>
<path d="M18.0674 3.71875V0.53125C18.0674 0.237849 17.8771 0 17.6424 0H16.3674C16.1327 0 15.9424 0.237849 15.9424 0.53125V3.71875C15.9424 4.01215 16.1327 4.25 16.3674 4.25H17.6424C17.8771 4.25 18.0674 4.01215 18.0674 3.71875Z" fill="#B3B3B3"/>
<path d="M22.8486 3.71875V0.53125C22.8486 0.237849 22.6584 0 22.4236 0H21.1486C20.9139 0 20.7236 0.237849 20.7236 0.53125V3.71875C20.7236 4.01215 20.9139 4.25 21.1486 4.25H22.4236C22.6584 4.25 22.8486 4.01215 22.8486 3.71875Z" fill="#B3B3B3"/>
<path d="M27.6299 3.71875V0.53125C27.6299 0.237849 27.4396 0 27.2049 0H25.9299C25.6952 0 25.5049 0.237849 25.5049 0.53125V3.71875C25.5049 4.01215 25.6952 4.25 25.9299 4.25H27.2049C27.4396 4.25 27.6299 4.01215 27.6299 3.71875Z" fill="#B3B3B3"/>
<path d="M13.2861 3.71875V0.53125C13.2861 0.237849 13.0959 0 12.8611 0H11.5861C11.3514 0 11.1611 0.237849 11.1611 0.53125V3.71875C11.1611 4.01215 11.3514 4.25 11.5861 4.25H12.8611C13.0959 4.25 13.2861 4.01215 13.2861 3.71875Z" fill="#B3B3B3"/>
<path d="M29.2719 3.50195H4.72812C4.17066 3.50195 3.71875 3.86348 3.71875 4.30945V29.4695C3.71875 29.9154 4.17066 30.277 4.72812 30.277H29.2719C29.8293 30.277 30.2812 29.9154 30.2812 29.4695V4.30945C30.2812 3.86348 29.8293 3.50195 29.2719 3.50195Z" fill="#531B9D"/>
<path d="M22.6578 20.2045C21.5422 22.1808 19.4172 23.4983 17 23.4983C13.4141 23.4983 10.4922 20.587 10.4922 16.9958C10.4922 13.4045 13.4141 10.4933 17 10.4933C19.4172 10.4933 21.5422 11.832 22.6578 13.8083L26.1109 11.8108C24.3047 8.64454 20.9047 6.49829 17 6.49829C11.2094 6.49829 6.50781 11.1945 6.50781 16.9958C6.50781 22.797 11.2094 27.4933 17 27.4933C20.8781 27.4933 24.2781 25.3683 26.0844 22.2445L22.6578 20.2045Z" fill="white"/>
<path d="M6.10938 6.92323C6.54948 6.92323 6.90625 6.5617 6.90625 6.11573C6.90625 5.66976 6.54948 5.30823 6.10938 5.30823C5.66927 5.30823 5.3125 5.66976 5.3125 6.11573C5.3125 6.5617 5.66927 6.92323 6.10938 6.92323Z" fill="white"/>
</g>
<defs>
<clipPath id="clip0_423_3838">
<rect width="34" height="34" fill="white"/>
</clipPath>
</defs>
</svg>
