<svg width="36" height="36" viewBox="0 0 36 36" fill="none" xmlns="http://www.w3.org/2000/svg">
<path d="M23.25 3V7.5M9.75 3V7.5M16.5 3V7.5M28.5 18V15.75C28.5 10.8 28.5 8.325 26.9625 6.7875C25.425 5.25 22.95 5.25 18 5.25H15C10.05 5.25 7.575 5.25 6.0375 6.7875C4.5 8.325 4.5 10.8 4.5 15.75V22.5C4.5 27.45 4.5 29.925 6.0375 31.4625C7.575 33 10.05 33 15 33H16.5M10.5 22.5H16.5M10.5 16.5H22.5M23.6055 32.4795L21 33L21.5205 30.3945C21.6255 29.8665 21.8865 29.3805 22.269 28.9995L28.3665 22.9005C28.4933 22.7735 28.6439 22.6728 28.8096 22.604C28.9754 22.5353 29.1531 22.4999 29.3325 22.4999C29.5119 22.4999 29.6896 22.5353 29.8554 22.604C30.0211 22.6728 30.1717 22.7735 30.2985 22.9005L31.0995 23.7015C31.2265 23.8283 31.3272 23.9789 31.396 24.1446C31.4647 24.3104 31.5001 24.4881 31.5001 24.6675C31.5001 24.8469 31.4647 25.0246 31.396 25.1904C31.3272 25.3561 31.2265 25.5067 31.0995 25.6335L25.002 31.731C24.6218 32.1145 24.1354 32.3753 23.6055 32.4795Z" stroke="url(#paint0_linear_423_4020)" stroke-width="3" stroke-linecap="round" stroke-linejoin="round"/>
<defs>
<linearGradient id="paint0_linear_423_4020" x1="18.0001" y1="3" x2="18.0001" y2="33" gradientUnits="userSpaceOnUse">
<stop stop-color="#9810FA"/>
<stop offset="1" stop-color="#C27AFF"/>
</linearGradient>
</defs>
</svg>
