<svg width="36" height="36" viewBox="0 0 36 36" fill="none" xmlns="http://www.w3.org/2000/svg">
<path d="M32.4495 2.23947C32.0979 2.32384 31.7182 2.47853 31.2964 2.68947C30.4526 3.11134 29.419 3.76525 28.3362 4.52462C26.4589 5.83947 24.4339 7.46017 23.0628 8.73986L25.8612 10.1391L27.2604 12.9375C28.5401 11.5664 30.1573 9.54142 31.4721 7.66408C32.2315 6.58478 32.8854 5.55119 33.3143 4.7004C33.5253 4.27853 33.68 3.90587 33.7573 3.55431C33.8417 3.20275 33.8909 2.7879 33.5534 2.4504C33.2159 2.12978 32.8503 2.15158 32.4495 2.23947ZM31.4089 4.5879C31.7534 4.91908 31.8026 5.43869 31.6761 5.90275C31.5495 6.36681 31.2471 6.8379 30.769 7.31955L27.8018 10.2867L25.7206 8.19845L28.6878 5.23478C29.1659 4.75665 29.637 4.45712 30.1011 4.32775C30.53 4.20751 31.1065 4.29681 31.4089 4.5879ZM12.8815 7.69923L11.3839 9.18986L14.5901 9.54142V7.69923H12.8815ZM22.0151 9.47111L18.9565 11.0039L8.19871 25.0735L9.16199 26.0438L16.0175 19.1883L16.812 19.9828C14.5268 22.268 12.2417 24.5602 9.95652 26.8453L10.9268 27.8016L24.9964 17.0438L26.5292 13.9852L25.0245 10.9758L22.0151 9.47111ZM3.97363 9.49923L4.49395 11.0602L13.0011 16.9313L17.5362 11.0039L3.97363 9.49923ZM6.65254 13.9149L5.73145 14.843L7.44637 16.5516L8.68387 15.3211L6.65254 13.9149ZM24.9964 18.4641L19.069 22.9992L24.9401 31.507L26.5011 32.0203L24.9964 18.4641ZM11.5737 18.8016L3.76973 19.4414L2.18066 21.0305L7.97371 23.5195L11.5737 18.8016ZM26.487 21.6985L26.8104 24.6164L28.0128 23.407V21.6985H26.487ZM17.1987 24.4266L12.4878 28.0266L14.9698 33.8203L16.5589 32.2313L17.1987 24.4266ZM7.44637 25.9172L6.52598 26.8383L9.16199 29.468L10.0831 28.5539L7.44637 25.9172ZM20.6792 27.3164L19.4487 28.5539L21.1573 30.2625L22.0854 29.3414L20.6792 27.3164Z" fill="url(#paint0_linear_423_4034)"/>
<defs>
<linearGradient id="paint0_linear_423_4034" x1="17.9999" y1="2.18304" x2="17.9999" y2="33.8203" gradientUnits="userSpaceOnUse">
<stop stop-color="#9810FA"/>
<stop offset="1" stop-color="#C27AFF"/>
</linearGradient>
</defs>
</svg>
