<svg width="36" height="36" viewBox="0 0 36 36" fill="none" xmlns="http://www.w3.org/2000/svg">
<g clip-path="url(#clip0_423_4041)">
<path d="M18 18L4.572 12.636L5.4 32.4H1.8L2.664 11.862L0 10.8L18 3.59998L36 10.8L18 18ZM18 8.99998C17.01 8.99998 16.2 9.39598 16.2 9.89998C16.2 10.404 17.01 10.8 18 10.8C18.99 10.8 19.8 10.404 19.8 9.89998C19.8 9.39598 18.99 8.99998 18 8.99998ZM18 19.8L28.026 15.786C29.304 17.478 30.186 19.512 30.474 21.726C29.934 21.654 29.376 21.6 28.8 21.6C24.21 21.6 20.196 24.066 18 27.738C16.8848 25.8678 15.3034 24.3191 13.4103 23.2432C11.5173 22.1673 9.37742 21.6011 7.2 21.6C6.624 21.6 6.066 21.654 5.526 21.726C5.814 19.512 6.696 17.478 7.974 15.786L18 19.8Z" fill="url(#paint0_linear_423_4041)"/>
</g>
<defs>
<linearGradient id="paint0_linear_423_4041" x1="18" y1="3.59998" x2="18" y2="32.4" gradientUnits="userSpaceOnUse">
<stop stop-color="#9810FA"/>
<stop offset="1" stop-color="#C27AFF"/>
</linearGradient>
<clipPath id="clip0_423_4041">
<rect width="36" height="36" fill="white"/>
</clipPath>
</defs>
</svg>
