<svg width="36" height="36" viewBox="0 0 36 36" fill="none" xmlns="http://www.w3.org/2000/svg">
<path d="M3 10.125C3 9.22989 3.35558 8.37145 3.98851 7.73851C4.62145 7.10558 5.47989 6.75 6.375 6.75H29.625C30.5201 6.75 31.3785 7.10558 32.0115 7.73851C32.6444 8.37145 33 9.22989 33 10.125V18.507C32.3564 17.704 31.5983 17 30.75 16.4175V10.125C30.75 9.82663 30.6315 9.54048 30.4205 9.3295C30.2095 9.11853 29.9234 9 29.625 9H6.375C6.07663 9 5.79048 9.11853 5.5795 9.3295C5.36853 9.54048 5.25 9.82663 5.25 10.125V25.875C5.25 26.496 5.754 27 6.375 27H14.832C14.9889 27.776 15.2355 28.5311 15.567 29.25H6.375C5.47989 29.25 4.62145 28.8944 3.98851 28.2615C3.35558 27.6285 3 26.7701 3 25.875V10.125Z" fill="url(#paint0_linear_423_4048)"/>
<path d="M27.375 14.625H8.625C8.32663 14.625 8.04048 14.5065 7.8295 14.2955C7.61853 14.0845 7.5 13.7984 7.5 13.5C7.5 13.2016 7.61853 12.9155 7.8295 12.7045C8.04048 12.4935 8.32663 12.375 8.625 12.375H27.375C27.6734 12.375 27.9595 12.4935 28.1705 12.7045C28.3815 12.9155 28.5 13.2016 28.5 13.5C28.5 13.7984 28.3815 14.0845 28.1705 14.2955C27.9595 14.5065 27.6734 14.625 27.375 14.625ZM16.4175 19.125C16.977 18.3108 17.6486 17.5795 18.4125 16.953C18.2807 16.903 18.141 16.8766 18 16.875H8.625C8.32663 16.875 8.04048 16.9935 7.8295 17.2045C7.61853 17.4155 7.5 17.7016 7.5 18C7.5 18.2984 7.61853 18.5845 7.8295 18.7955C8.04048 19.0065 8.32663 19.125 8.625 19.125H16.4175Z" fill="url(#paint1_linear_423_4048)"/>
<path fill-rule="evenodd" clip-rule="evenodd" d="M30.9851 22.923C30.9851 24.747 30.1751 26.3835 28.8971 27.492V31.875C28.897 32.0931 28.8334 32.3065 28.7141 32.4891C28.5949 32.6718 28.4251 32.8158 28.2255 32.9037C28.0258 32.9916 27.8049 33.0196 27.5897 32.9842C27.3744 32.9488 27.1741 32.8516 27.0131 32.7045L24.9386 30.8085L22.8656 32.7045C22.7046 32.8516 22.5043 32.9488 22.2891 32.9842C22.0738 33.0196 21.8529 32.9916 21.6533 32.9037C21.4537 32.8158 21.2839 32.6718 21.1646 32.4891C21.0454 32.3065 20.9818 32.0931 20.9816 31.875V27.4965C20.2156 26.8339 19.6283 25.9896 19.2736 25.041C18.9189 24.0924 18.8081 23.0698 18.9515 22.0673C19.0949 21.0647 19.4878 20.1142 20.0942 19.303C20.7006 18.4918 21.501 17.846 22.422 17.4247C23.343 17.0034 24.3551 16.8202 25.3653 16.892C26.3756 16.9637 27.3516 17.288 28.2038 17.8352C29.0561 18.3823 29.7572 19.1348 30.2429 20.0235C30.7286 20.9122 30.9833 21.9087 30.9836 22.9215M24.9356 19.1235C24.4306 19.1134 23.9287 19.2042 23.4592 19.3906C22.9897 19.5769 22.5621 19.855 22.2014 20.2086C21.8407 20.5622 21.5541 20.9842 21.3585 21.4499C21.1629 21.9156 21.0622 22.4156 21.0622 22.9207C21.0622 23.4258 21.1629 23.9259 21.3585 24.3916C21.5541 24.8573 21.8407 25.2793 22.2014 25.6329C22.5621 25.9865 22.9897 26.2646 23.4592 26.4509C23.9287 26.6372 24.4306 26.728 24.9356 26.718C25.9297 26.6982 26.8763 26.2895 27.5723 25.5795C28.2683 24.8695 28.6582 23.9149 28.6582 22.9207C28.6582 21.9265 28.2683 20.9719 27.5723 20.262C26.8763 19.552 25.9297 19.1432 24.9356 19.1235Z" fill="url(#paint2_linear_423_4048)"/>
<defs>
<linearGradient id="paint0_linear_423_4048" x1="18" y1="6.75" x2="18" y2="29.25" gradientUnits="userSpaceOnUse">
<stop stop-color="#9810FA"/>
<stop offset="1" stop-color="#C27AFF"/>
</linearGradient>
<linearGradient id="paint1_linear_423_4048" x1="18" y1="12.375" x2="18" y2="19.125" gradientUnits="userSpaceOnUse">
<stop stop-color="#9810FA"/>
<stop offset="1" stop-color="#C27AFF"/>
</linearGradient>
<linearGradient id="paint2_linear_423_4048" x1="24.9379" y1="16.8768" x2="24.9379" y2="32.9991" gradientUnits="userSpaceOnUse">
<stop stop-color="#9810FA"/>
<stop offset="1" stop-color="#C27AFF"/>
</linearGradient>
</defs>
</svg>
