<svg width="33" height="34" viewBox="0 0 33 34" fill="none" xmlns="http://www.w3.org/2000/svg">
<g clip-path="url(#clip0_423_3915)">
<path d="M20.9312 18.6575C21.1154 18.6575 21.806 18.9692 23.0031 19.5925C24.2002 20.2158 24.8342 20.5912 24.905 20.7187C24.9333 20.7896 24.9475 20.8958 24.9475 21.0375C24.9475 21.505 24.8271 22.0433 24.5863 22.6525C24.3596 23.205 23.8567 23.6689 23.0775 24.0444C22.2983 24.4198 21.5758 24.6075 20.91 24.6075C20.1025 24.6075 18.7567 24.1683 16.8725 23.29C15.4842 22.6525 14.28 21.8167 13.26 20.7825C12.24 19.7483 11.1917 18.4379 10.115 16.8512C9.095 15.3354 8.59208 13.9612 8.60625 12.7287V12.5587C8.64875 11.2696 9.17292 10.1504 10.1788 9.20124C10.5188 8.88957 10.8871 8.73374 11.2838 8.73374C11.3688 8.73374 11.4963 8.74437 11.6663 8.76562C11.8363 8.78687 11.9708 8.79749 12.07 8.79749C12.3392 8.79749 12.5269 8.84353 12.6331 8.93562C12.7394 9.0277 12.8492 9.22249 12.9625 9.51999C13.0758 9.80332 13.3096 10.4267 13.6637 11.39C14.0179 12.3533 14.195 12.8846 14.195 12.9837C14.195 13.2812 13.9506 13.6885 13.4619 14.2056C12.9731 14.7227 12.7288 15.0521 12.7288 15.1937C12.7288 15.2929 12.7642 15.3992 12.835 15.5125C13.3167 16.5467 14.0392 17.5171 15.0025 18.4237C15.7958 19.1746 16.8654 19.89 18.2113 20.57C18.3813 20.6692 18.5371 20.7187 18.6788 20.7187C18.8913 20.7187 19.2738 20.3752 19.8263 19.6881C20.3787 19.001 20.7471 18.6575 20.9312 18.6575ZM16.6175 29.92C18.4167 29.92 20.1415 29.5658 21.7919 28.8575C23.4423 28.1492 24.8625 27.2 26.0525 26.01C27.2425 24.82 28.1917 23.3998 28.9 21.7494C29.6083 20.0989 29.9625 18.3742 29.9625 16.575C29.9625 14.7758 29.6083 13.051 28.9 11.4006C28.1917 9.7502 27.2425 8.32999 26.0525 7.13999C24.8625 5.94999 23.4423 5.00082 21.7919 4.29249C20.1415 3.58416 18.4167 3.22999 16.6175 3.22999C14.8183 3.22999 13.0935 3.58416 11.4431 4.29249C9.79271 5.00082 8.3725 5.94999 7.1825 7.13999C5.9925 8.32999 5.04333 9.7502 4.335 11.4006C3.62667 13.051 3.2725 14.7758 3.2725 16.575C3.2725 19.4508 4.1225 22.0575 5.8225 24.395L4.14375 29.3462L9.28625 27.71C11.5246 29.1833 13.9683 29.92 16.6175 29.92ZM16.6175 0.55249C18.785 0.55249 20.8569 0.97749 22.8331 1.82749C24.8094 2.67749 26.5129 3.81791 27.9438 5.24874C29.3746 6.67957 30.515 8.38312 31.365 10.3594C32.215 12.3356 32.64 14.4075 32.64 16.575C32.64 18.7425 32.215 20.8144 31.365 22.7906C30.515 24.7669 29.3746 26.4704 27.9438 27.9012C26.5129 29.3321 24.8094 30.4725 22.8331 31.3225C20.8569 32.1725 18.785 32.5975 16.6175 32.5975C13.855 32.5975 11.2696 31.9317 8.86125 30.6L0 33.4475L2.89 24.8412C1.36 22.3196 0.595 19.5642 0.595 16.575C0.595 14.4075 1.02 12.3356 1.87 10.3594C2.72 8.38312 3.86042 6.67957 5.29125 5.24874C6.72208 3.81791 8.42562 2.67749 10.4019 1.82749C12.3781 0.97749 14.45 0.55249 16.6175 0.55249Z" fill="white"/>
</g>
<defs>
<clipPath id="clip0_423_3915">
<rect width="32.64" height="34" fill="white"/>
</clipPath>
</defs>
</svg>
